<svg id="Layer_1" data-name="Layer 1" xmlns="http://www.w3.org/2000/svg" xmlns:xlink="http://www.w3.org/1999/xlink" viewBox="0 0 727.19 269.22"><defs><style>.cls-1{fill:url(#linear-gradient);}.cls-2{fill:url(#linear-gradient-2);}.cls-3{fill:url(#linear-gradient-3);}.cls-4{fill:url(#linear-gradient-4);}.cls-5{fill:url(#linear-gradient-5);}.cls-6{fill:url(#linear-gradient-6);}.cls-7{fill:url(#linear-gradient-7);}</style><linearGradient id="linear-gradient" x1="323.07" y1="613.34" x2="440.08" y2="613.34" gradientUnits="userSpaceOnUse"><stop offset="0" stop-color="#fd3e34"/><stop offset="0.08" stop-color="#f23930"/><stop offset="0.3" stop-color="#d72c27"/><stop offset="0.52" stop-color="#c42321"/><stop offset="0.75" stop-color="#b91e1d"/><stop offset="1" stop-color="#b51c1c"/></linearGradient><linearGradient id="linear-gradient-2" x1="434.05" y1="597" x2="865.34" y2="408.86" xlink:href="#linear-gradient"/><linearGradient id="linear-gradient-3" x1="136.41" y1="546.94" x2="325.77" y2="546.94" xlink:href="#linear-gradient"/><linearGradient id="linear-gradient-4" x1="717.24" y1="546.29" x2="860.67" y2="546.29" xlink:href="#linear-gradient"/><linearGradient id="linear-gradient-5" x1="637.75" y1="546.96" x2="715.24" y2="546.96" xlink:href="#linear-gradient"/><linearGradient id="linear-gradient-6" x1="346.4" y1="480.16" x2="463.68" y2="480.16" xlink:href="#linear-gradient"/><linearGradient id="linear-gradient-7" x1="335.3" y1="545.32" x2="444.9" y2="545.32" xlink:href="#linear-gradient"/></defs><path class="cls-1" d="M378.4,632.41c-16.78,0-33.57-.11-50.35.08-4.06,0-5.74-.27-4.65-5.13,2.17-9.74,3.65-19.64,5.25-29.5.45-2.78,1.57-3.68,4.49-3.68q51.58.18,103.17,0c3.2,0,4.27.51,3.55,4.06-2,10-3.78,20-5.23,30-.48,3.36-1.6,4.25-4.89,4.22C412.63,632.32,395.52,632.41,378.4,632.41Z" transform="translate(-136.41 -365.39)"/><path class="cls-2" d="M539.64,584.72C529,598.43,518.5,611.46,508.69,625c-4.22,5.83-8.94,8.14-16,7.91-13.17-.44-26.36-.12-39.54-.14-1.28,0-3,.56-3.71-.64-.94-1.63,1-2.52,1.83-3.56,21.13-26,42.2-52.12,63.56-78,3.42-4.14,4.06-7.27,1.48-12.16-12.7-24.09-25-48.38-37.44-72.61-2.4-4.69-2.34-4.73,3.07-4.73,15,0,30,.17,45-.11,4.61-.09,7.17,1.35,9.19,5.53,6,12.39,12.53,24.54,18.68,36.87,2,3.95,3.22,4.22,6.09.49,29.47-38.29,59.14-76.43,88.63-114.7a9.17,9.17,0,0,1,8.18-4.09c53.38.13,106.76,0,160.14.22,5.18,0,6.59-1.44,6.1-6.31-.42-4.16-.08-8.4-.08-13.63,1.8,1.65,2.86,2.55,3.85,3.53q17.05,16.8,34.08,33.62c1.42,1.4,3,2.46.71,4.69-12.63,12.43-25.13,25-38.64,38.48,0-6.17-.16-11.15.05-16.12.14-3.09-.64-4.3-4.05-4.3q-70.92.16-141.86,0a5.65,5.65,0,0,0-4.93,2.49Q627,486,580.85,544.15c-2.17,2.73-2.28,4.94-.7,8,13,25.07,25.75,50.21,38.61,75.32,2.63,5.14,2.57,5.32-3.14,5.33-15.16,0-30.32-.06-45.47.06-3.72,0-6-1.12-7.74-4.61C555.14,613.91,547.54,599.74,539.64,584.72Z" transform="translate(-136.41 -365.39)"/><path class="cls-3" d="M260.65,556.93c2.34-13.35,4.4-25.38,6.56-37.39,3.31-18.4,6.7-36.78,10-55.17.42-2.33,1.35-3.28,3.88-3.26,13.84.12,27.68.18,41.52,0,4,0,3.24,2.12,2.84,4.39q-5,28.59-10.13,57.16C309.16,557.52,303,592.39,297,627.3c-.74,4.31-2.35,5.64-6.66,5.54-12.68-.27-25.38-.24-38.06,0-3.89.07-5.83-1.29-7.48-4.76-13.61-28.54-27.41-57-41.16-85.45-.63-1.3-1.36-2.55-2.55-4.77-2.11,11.58-4.08,22.15-6,32.73q-5.12,28.81-10.07,57.66c-.56,3.36-1.93,4.63-5.48,4.58-12.85-.21-25.71-.28-38.55,0-4.46.1-5.09-1.26-4.37-5.27q9.27-51.06,18.26-102.17c3.5-19.7,7.06-39.38,10.43-59.1.63-3.73,1.67-5.44,6.1-5.29,12.51.41,25,.31,37.56,0,4.14-.08,6.16,1.52,7.85,5.1q20.19,42.63,40.66,85.13C258.25,552.83,259.17,554.28,260.65,556.93Z" transform="translate(-136.41 -365.39)"/><path class="cls-4" d="M834.65,512c-7.41,0-14.83-.09-22.24.05-2.59,0-3.68-.46-3.89-3.42-.53-7.43-2.69-9.93-9-11.76s-13,0-16.65,4.49c-3.35,4.11-3.21,9.62.52,13.95s8.47,7.19,13.48,9.78c11.23,5.8,23,10.53,33.63,17.49,23.13,15.19,28.88,43.82,13.14,66.18a51.79,51.79,0,0,1-24.68,19c-25.43,9.37-50.95,9.45-76-1.39-17.1-7.4-26.45-23.36-25.67-41.76.16-3.91,1.09-5.69,5.72-5.55,13.34.4,26.7.26,40,.06,3.76-.05,5.55.45,5.56,4.92,0,6.57,4.34,10.73,11.37,12.26,7.35,1.6,15.3-.94,18.16-5.81,3-5.1,2.28-10.21-2.24-14.16a65.88,65.88,0,0,0-16.27-10.11q-11.42-5.22-22.82-10.47c-17.42-8.06-28.33-20.94-28.4-40.72-.08-20,8.05-36.61,26-46,27.5-14.4,56-14.57,83.95-.89,16.69,8.17,22.22,23.19,22.27,40.84,0,3-1.59,3.09-3.77,3.08C849.49,511.94,842.07,512,834.65,512Z" transform="translate(-136.41 -365.39)"/><path class="cls-5" d="M691.46,461.17c6.76,0,13.51.16,20.26-.07,3.3-.12,3.88,1,3.35,4q-6.74,37.5-13.28,75c-5.1,28.89-10.29,57.76-15.17,86.69-.79,4.63-2.39,6.21-7.24,6.06-12.33-.39-24.7-.35-37,0-4.52.12-5-1.32-4.32-5.26q10.28-56.85,20.31-113.74c2.83-16,5.72-31.94,8.39-47.94.57-3.42,1.49-5.11,5.48-4.86C678.6,461.46,685,461.17,691.46,461.17Z" transform="translate(-136.41 -365.39)"/><path class="cls-6" d="M346.4,498.74c2-11.52,4-23,6-34.44.4-2.38,1.43-3.19,3.91-3.19q52.11.12,104.23,0c2.82,0,3.58.46,3,3.57-2,10.28-3.67,20.65-5.38,31-.36,2.12-.71,3.54-3.53,3.53-35.56-.1-71.12-.07-106.69-.1A6.8,6.8,0,0,1,346.4,498.74Z" transform="translate(-136.41 -365.39)"/><path class="cls-7" d="M386.6,563.4c-15.81,0-31.62-.14-47.43.1-3.87,0-4.25-1.28-3.63-4.49,1.78-9.33,3.42-18.7,5-28.08.44-2.63,1.33-3.81,4.38-3.8q48.43.21,96.85,0c2.88,0,3.56.54,2.91,3.62q-3,14.43-5.21,29c-.46,3.06-1.68,3.65-4.44,3.63C418.89,563.35,402.75,563.4,386.6,563.4Z" transform="translate(-136.41 -365.39)"/></svg>